<?xml version="1.0" encoding="UTF-8" standalone="no"?>
<svg
   version="1.0"
   width="1279.3955pt"
   height="528.18628pt"
   viewBox="0 0 1279.3955 528.18628"
   preserveAspectRatio="xMidYMid"
   id="svg1"
   sodipodi:docname="logo.svg"
   inkscape:version="1.3 (0e150ed6c4, 2023-07-21)"
   xmlns:inkscape="http://www.inkscape.org/namespaces/inkscape"
   xmlns:sodipodi="http://sodipodi.sourceforge.net/DTD/sodipodi-0.dtd"
   xmlns="http://www.w3.org/2000/svg"
   xmlns:svg="http://www.w3.org/2000/svg">
  <defs
     id="defs1">
    <rect
       x="92.289734"
       y="524.85583"
       width="1112.0555"
       height="303.16397"
       id="rect1706" />
  </defs>
  <sodipodi:namedview
     id="namedview1"
     pagecolor="#ffffff"
     bordercolor="#000000"
     borderopacity="0.25"
     inkscape:showpageshadow="2"
     inkscape:pageopacity="0.0"
     inkscape:pagecheckerboard="0"
     inkscape:deskcolor="#d1d1d1"
     inkscape:document-units="pt"
     inkscape:zoom="0.47315387"
     inkscape:cx="699.56101"
     inkscape:cy="895.05767"
     inkscape:window-width="3440"
     inkscape:window-height="1408"
     inkscape:window-x="0"
     inkscape:window-y="32"
     inkscape:window-maximized="1"
     inkscape:current-layer="svg1" />
  <metadata
     id="metadata1">&#10;Created by potrace 1.15, written by Peter Selinger 2001-2017&#10;</metadata>
  <g
     transform="matrix(0.1,0,0,-0.1,-0.30223885,511)"
     fill="#000000"
     stroke="none"
     id="g1"
     style="fill:#75b1e1;fill-opacity:1">
    <path
       d="m 9235,5088 c 6,-26 45,-219 45,-223 0,-1 23,-5 52,-8 56,-7 68,0 68,42 0,14 5,21 13,18 35,-15 336,-132 682,-267 215,-83 394,-155 398,-159 4,-4 -221,-108 -500,-231 -279,-123 -523,-230 -541,-239 -24,-11 -35,-25 -43,-53 -9,-35 -13,-38 -44,-38 -33,0 -34,-1 -37,-47 l -3,-48 -62,-3 -63,-3 v -35 -34 l -627,2 -628,3 -3,-32 -3,-33 h -135 -134 v 85 85 h -390 -390 v -74 c 0,-41 -3,-77 -8,-79 -4,-3 -66,-6 -137,-8 l -130,-3 v 82 82 h -215 -215 v -82 -82 l -130,3 c -71,2 -133,5 -137,8 -5,2 -8,38 -8,79 v 74 h -390 -390 v -85 -85 h -134 -135 l -3,33 -3,32 -640,-3 c -1332,-5 -1947,-18 -2450,-51 -253,-17 -541,-35 -640,-40 -240,-13 -354,-43 -404,-107 -42,-53 -129,-372 -181,-659 -65,-363 -73,-446 -77,-802 l -5,-333 h 55 c 46,0 55,-3 60,-20 5,-19 0,-20 -151,-20 -117,1 -163,4 -182,15 -34,20 -162,20 -200,0 -42,-22 -49,-60 -17,-92 21,-22 37,-27 100,-31 63,-4 82,-1 118,17 40,20 57,22 199,19 151,-3 155,-4 158,-25 3,-17 -3,-24 -25,-29 -56,-12 -63,-16 -63,-31 0,-8 14,-28 30,-43 56,-53 67,-53 1016,-45 l 872,7 11,-35 c 15,-46 79,-109 138,-138 57,-27 166,-36 228,-19 25,7 63,25 84,41 l 39,27 28,-29 28,-29 h 474 474 l 29,24 29,25 57,-26 c 67,-31 183,-42 249,-24 67,18 119,62 150,130 28,59 30,60 70,60 25,1 46,-5 54,-14 11,-13 227,-15 1830,-15 1603,0 1819,2 1830,15 8,9 29,15 54,14 40,0 42,-1 70,-60 31,-68 83,-112 150,-130 66,-18 182,-7 249,24 l 57,26 29,-25 29,-24 h 474 474 l 28,29 28,29 39,-27 c 21,-16 59,-34 84,-41 62,-17 171,-8 228,19 59,29 123,92 138,138 l 11,35 872,-7 c 949,-8 960,-8 1016,45 38,35 39,58 3,66 -60,13 -64,15 -61,37 3,21 8,22 158,25 142,3 159,1 199,-19 36,-18 55,-21 118,-17 63,4 79,9 100,31 32,32 25,70 -17,92 -38,20 -166,20 -200,0 -19,-11 -65,-14 -182,-15 -151,0 -156,1 -151,20 5,17 14,20 60,20 h 55 l -5,333 c -4,356 -12,439 -77,802 -52,287 -139,606 -181,659 -50,63 -165,94 -399,107 -96,5 -386,22 -644,39 -258,16 -501,30 -540,30 -39,0 -88,3 -108,6 -36,6 -38,8 -38,45 v 39 h -85 -85 v 50 c 0,46 -2,50 -25,50 -20,0 -25,6 -30,38 -11,64 -7,62 -112,62 -54,0 -142,3 -195,7 l -97,6 372,169 c 205,93 418,190 475,215 l 103,46 -3,35 -3,35 -135,53 c -74,29 -344,134 -600,233 l -465,180 3,50 3,51 h -121 c -120,0 -120,0 -115,-22 z M 2940,3205 v -95 h -239 -239 l -1,95 -2,95 h 241 240 z m 520,0 v -95 h -235 -235 v 95 95 h 235 235 z m 630,0 v -95 h -240 -240 v 95 95 h 240 240 z m 520,0 v -95 h -235 -235 v 95 95 h 235 235 z m 590,0 v -95 h -229 -229 l -1,95 -2,95 h 231 230 z m 490,0 v -95 h -225 -225 v 95 95 h 225 225 z m 1870,0 v -95 h -225 -225 v 95 95 h 225 225 z m 490,0 v -95 h -225 -225 v 95 95 h 225 225 z m 610,0 v -95 h -235 -235 v 95 95 h 235 235 z m 530,0 v -95 h -240 -240 v 95 95 h 240 240 z m 620,0 v -95 h -235 -235 v 95 95 h 235 235 z m 529,0 -1,-95 h -239 -239 v 95 95 h 240 241 z m -9328,50 c 16,-9 34,-27 39,-41 15,-38 13,-690 -2,-717 -23,-45 -32,-46 -276,-47 H 539 l 7,53 c 29,248 77,508 121,670 l 27,97 h 144 c 109,0 150,-4 173,-15 z m 11116,-62 c 35,-123 79,-345 102,-513 12,-85 24,-172 27,-192 l 6,-38 h -234 c -244,1 -253,2 -276,47 -15,27 -17,679 -2,717 17,46 51,55 210,56 h 145 z m -10466,-42 29,-29 v -565 -565 l -26,-31 -26,-31 h -151 c -159,1 -173,4 -195,47 -17,31 -17,1125 0,1156 22,43 37,46 191,47 h 149 z m 540,0 29,-29 v -565 -565 l -26,-31 -26,-31 h -154 c -155,0 -155,0 -179,26 l -25,27 v 572 572 l 26,27 c 26,26 28,26 176,26 h 150 z m 4074,4 25,-24 v -576 -576 l -25,-24 c -23,-24 -28,-25 -174,-25 -144,0 -151,1 -178,24 l -28,24 v 577 577 l 28,24 c 27,23 34,24 178,24 146,0 151,-1 174,-25 z m 602,1 28,-24 v -577 -577 l -28,-24 c -27,-23 -34,-24 -178,-24 -146,0 -151,1 -174,25 l -25,24 v 576 576 l 25,24 c 23,24 28,25 174,25 144,0 151,-1 178,-24 z m 4077,-2 26,-27 v -572 -572 l -25,-27 c -24,-26 -24,-26 -179,-26 h -154 l -26,31 -26,31 v 565 565 l 29,29 29,29 h 150 c 148,0 150,0 176,-26 z m 527,13 c 38,-29 39,-41 39,-612 0,-404 -3,-562 -12,-578 -22,-43 -36,-46 -195,-47 h -151 l -26,31 -26,31 v 565 565 l 29,29 29,29 h 149 c 100,-1 153,-5 164,-13 z M 3460,2765 v -305 h -495 -494 l -3,305 -3,305 h 498 497 z m 1150,0 v -305 h -500 -500 v 305 305 h 500 500 z m 1080,-120 v -425 h -364 -364 l -106,115 -105,116 -3,309 -3,310 h 473 472 z m 2362,115 -3,-309 -105,-116 -106,-115 h -364 -364 v 425 425 h 473 472 z m 1138,5 v -305 h -500 -500 v 305 305 h 500 500 z m 1142,0 -3,-305 h -494 -495 v 305 305 h 498 497 z"
       id="path1"
       style="fill:#75b1e1;fill-opacity:1" />
  </g>
  <text
     xml:space="preserve"
     id="text1704"
     style="font-size:186.667px;font-family:'Seven Segment';-inkscape-font-specification:'Seven Segment';white-space:pre;shape-inside:url(#rect1706);display:inline;fill:#75b1e1;fill-opacity:1;stroke:#75b1e1;stroke-opacity:1"
     transform="matrix(0.75,0,0,0.75,254.71039,-14.77312)"><tspan
       x="92.289062"
       y="694.69915"
       id="tspan2">ULF_COM</tspan></text>
</svg>
